/* XPM */
static char *_50466d0a4bb4480a2ec7ecce3b10645EvDie3mEOfYtBfKz[] = {
/* columns rows colors chars-per-pixel */
"20 20 90 1 ",
"  c None",
". c #950000",
"X c #9B0100",
"o c #9D0100",
"O c #9E0200",
"+ c #9F0200",
"@ c #A40200",
"# c #A70300",
"$ c #A90501",
"% c #AD0600",
"& c #AC0A01",
"* c #B10A01",
"= c #B50D01",
"- c #B80E01",
"; c #BD0D00",
": c #A61A06",
"> c #A81D07",
", c #BC1001",
"< c #B62200",
"1 c #B62C0D",
"2 c #BC3A14",
"3 c #C11201",
"4 c #C41401",
"5 c #C71501",
"6 c #CA1701",
"7 c #CC1701",
"8 c #C01C01",
"9 c #CE1801",
"0 c #C91C00",
"q c #D01700",
"w c #D31A00",
"e c #D51800",
"r c #D51C01",
"t c #D81C00",
"y c #D91C00",
"u c #DA1D00",
"i c #DD1F00",
"p c #DF1F00",
"a c #CD310A",
"s c #DF3304",
"d c #DF3D0E",
"f c #C13C14",
"g c #E22100",
"h c #E62200",
"j c #E92500",
"k c #ED2600",
"l c #E72A01",
"z c #F02700",
"x c #F22800",
"c c #F42900",
"v c #F72B00",
"b c #FA2B00",
"n c #FE2D00",
"m c #FC2E00",
"M c #EB3502",
"N c #E63F0B",
"B c #F73000",
"V c #FC3E02",
"C c #AC5700",
"Z c #AF6300",
"A c #B46D00",
"S c #B96D0D",
"D c #BA7800",
"F c #C84D1F",
"G c #D3521F",
"H c #ED490F",
"J c #F74307",
"K c #FE4506",
"L c #F94A0A",
"P c #FE4F0D",
"I c #F25D1B",
"U c #FF691F",
"Y c #D76027",
"T c #E06125",
"R c #FA6B24",
"E c #FF7327",
"W c #FF7D2F",
"Q c #C18500",
"! c #C38900",
"~ c #CA9300",
"^ c #CD9A00",
"/ c #D09E02",
"( c #CA8C19",
") c #DAA71C",
"_ c #D59E21",
"` c #D59736",
"' c #D69938",
"] c #FF8937",
"[ c #E1AD34",
"{ c #FF9841",
/* pixels */
"                    ",
"       ZDA          ",
"       Q^/(         ",
"      A~/['         ",
"      Z~)`          ",
"       !_           ",
"    #@ CS >1ff2>    ",
"  #eMHs0<8sJKKPIG:  ",
"  uP]{UnvkznnnbnLT> ",
" ;bU{WKnnnnbvxxxkIF ",
" enPEJbbvvxzzzzjhHY ",
" uBRRbxzkkjjghggyHG ",
" wxlljjhhhggppuuudf ",
" ;jhhgppgrwurrw96a: ",
" #wipurue9w966655&  ",
"  %6ww666464333,$   ",
"   %3355433,,==$.   ",
"    X&-=,==**$o     ",
"      oXoo@oo       ",
"                    "
};
