/* XPM */
static char *b206c682335446b9bedf03dc29c02819PpDEmaA1IxlZzhcc[] = {
/* columns rows colors chars-per-pixel */
"50 50 252 2 ",
"   c #020202",
".  c #0A0202",
"X  c #040804",
"o  c #02030C",
"O  c #0C030B",
"+  c #0B0A0B",
"@  c #070A06",
"#  c #120402",
"$  c #1B0A04",
"%  c #130C0D",
"&  c #1B0E0E",
"*  c #150A04",
"=  c #0E1408",
"-  c #1D1103",
";  c #13140E",
":  c #1B140D",
">  c #141A0C",
",  c #1A1A0D",
"<  c #161106",
"1  c #010312",
"2  c #0B0911",
"3  c #150D14",
"4  c #190E16",
"5  c #071418",
"6  c #141313",
"7  c #1C1415",
"8  c #1B1915",
"9  c #15141B",
"0  c #1C141A",
"q  c #1B1A1B",
"w  c #151B1B",
"e  c #230C09",
"r  c #23150C",
"t  c #261A0B",
"y  c #281509",
"u  c #361A07",
"i  c #230B12",
"p  c #2B0F1D",
"a  c #340E19",
"s  c #231514",
"d  c #291413",
"f  c #231914",
"g  c #2C1B15",
"h  c #22161C",
"j  c #2A151C",
"k  c #231B1D",
"l  c #2B1C1C",
"z  c #331B13",
"x  c #311E1D",
"c  c #371819",
"v  c #1A2117",
"b  c #29290F",
"n  c #3A2306",
"m  c #2C3308",
"M  c #24221E",
"N  c #2B221C",
"B  c #292816",
"V  c #33231C",
"C  c #3B251C",
"Z  c #362A1C",
"A  c #3C2A1C",
"S  c #382714",
"D  c #383418",
"F  c #1D1622",
"G  c #151C22",
"H  c #1D1C22",
"J  c #191728",
"K  c #13132D",
"L  c #241C22",
"P  c #2A1C23",
"I  c #251B2A",
"U  c #2C1C2B",
"Y  c #291625",
"T  c #331B23",
"R  c #351A2A",
"E  c #281F36",
"W  c #311C35",
"Q  c #2C0E24",
"!  c #1C2228",
"~  c #172236",
"^  c #242222",
"/  c #2D2324",
"(  c #2D2B25",
")  c #2C232A",
"_  c #2C2B2B",
"`  c #232029",
"'  c #342424",
"]  c #3B2522",
"[  c #342A26",
"{  c #3B2C24",
"}  c #34242B",
"|  c #3A2429",
" . c #34292A",
".. c #3B2C2B",
"X. c #3D3323",
"o. c #3B332C",
"O. c #393927",
"+. c #2B2232",
"@. c #362B33",
"#. c #382935",
"$. c #3D3433",
"%. c #393836",
"&. c #2A3129",
"*. c #421B16",
"=. c #521E10",
"-. c #422606",
";. c #4A330C",
":. c #55350B",
">. c #432D15",
",. c #42261C",
"<. c #42291B",
"1. c #4D2D1D",
"2. c #432616",
"3. c #562D18",
"4. c #45331A",
"5. c #4C321B",
"6. c #483B1B",
"7. c #53321C",
"8. c #53371A",
"9. c #70371E",
"0. c #411F20",
"q. c #442523",
"w. c #452E24",
"e. c #4A2D24",
"r. c #412B2B",
"t. c #4B2D2C",
"y. c #472429",
"u. c #552D25",
"i. c #443324",
"p. c #4B3424",
"a. c #443C24",
"s. c #4C3B24",
"d. c #44342C",
"f. c #4B342B",
"g. c #433B2A",
"h. c #4C3B2C",
"j. c #533424",
"k. c #533B25",
"l. c #5A3B25",
"z. c #52352B",
"x. c #533B2D",
"c. c #5B3E2D",
"v. c #593727",
"b. c #462A38",
"n. c #433433",
"m. c #4B3531",
"M. c #453A32",
"N. c #4C3C33",
"B. c #453C3B",
"V. c #4C3C3B",
"C. c #4A363B",
"Z. c #533535",
"A. c #533D33",
"S. c #5A3D33",
"D. c #543C3C",
"F. c #5A3639",
"G. c #592A32",
"H. c #672E2A",
"J. c #623927",
"K. c #633D33",
"L. c #6A3C33",
"P. c #723E29",
"I. c #3D432A",
"U. c #3B413A",
"Y. c #5A4419",
"T. c #52491A",
"R. c #714C1D",
"E. c #4C412D",
"W. c #474229",
"Q. c #54422C",
"!. c #5A432D",
"~. c #5A4828",
"^. c #464230",
"/. c #4D4133",
"(. c #4E433A",
"). c #49493A",
"_. c #554233",
"`. c #5B4335",
"'. c #544934",
"]. c #5A4B34",
"[. c #55433C",
"{. c #5C453A",
"}. c #534A3A",
"|. c #5C4A3B",
" X c #644323",
".X c #62422B",
"XX c #624B2C",
"oX c #6B4829",
"OX c #76472C",
"+X c #78532C",
"@X c #624534",
"#X c #6A4434",
"$X c #644B35",
"%X c #6B4B35",
"&X c #63453A",
"*X c #6A443C",
"=X c #644B3C",
"-X c #6B4C3B",
";X c #724434",
":X c #744C36",
">X c #7A4B33",
",X c #7B4A3A",
"<X c #734D3D",
"1X c #675238",
"2X c #745239",
"3X c #785538",
"4X c #69512F",
"5X c #7D613C",
"6X c #302346",
"7X c #393442",
"8X c #4B3846",
"9X c #583A44",
"0X c #713F40",
"qX c #494548",
"wX c #5A4542",
"eX c #5C4B42",
"rX c #534748",
"tX c #5E5145",
"yX c #465552",
"uX c #644C42",
"iX c #6B4C42",
"pX c #684B48",
"aX c #754A43",
"sX c #6B5342",
"dX c #685446",
"fX c #755344",
"gX c #7C5943",
"hX c #775749",
"jX c #694C51",
"kX c #6C5D57",
"lX c #785553",
"zX c #7C6547",
"xX c #7D6156",
"cX c #844629",
"vX c #875622",
"bX c #874E3C",
"nX c #86583A",
"mX c #954F38",
"MX c #A05639",
"NX c #88633A",
"BX c #885845",
"VX c #965747",
"CX c #835A53",
"ZX c #8E4D4F",
"AX c #85664B",
"SX c #866556",
"DX c #A85857",
"FX c #AA8C5A",
"GX c #AD8C57",
"HX c #A68E67",
"JX c #A78B73",
"KX c #B18B71",
/* pixels */
"& ^ 0 j L w 9 h 6 F q 9 q L ..| ! d > #.#.} P L F I 9 L 4 L L I 0 L 6 k F F L k P L 0 q ^ 7 9 F 0 3 ",
"l ^ ^  .k 6 6 h 4 _ 0 q $.[ $ e 7X[ #.l > 9 { #.^ L $.s s } U L 0 0 k 7 0 ) l o.s k _ 0 q h h L ^ w ",
"h k ; s & M q : 0 L } k r & p.}.3 w p $ )./.< & , < , : 8 q ^ q h $./ ..L 7 f * g : ) ` 0 k h ) ^ s ",
"' M.(.n.[...M.{ [ : r g d.A.{.i.:Xj 6.I.>.BXY C.w.f.,.] z x P s 7 s * s d ' { V.i...k ) k ..s 7 N : ",
"{ [.f.a.x.z.=Xi.{ Z A.h.A._.|.d._.R 5.%XmXnXr.D <.V d.N $.[ k  .[ V d.' ] C ] ' f.{ s } l e s M.l , ",
"y i.h.|.x.j.=Xa.g.i.V A.f.uXz.1.Y F.#XbXAXi.3.3.x.p.] t.q.T d N.{ ' C.{ h.Z A.] V ' N ..[.N.{.A.] d ",
"g S.=X- x.K.iX< wXN.d.V uXf.7.fXN ;.gXKXs.rXy.y.i.A.N.V ] g N.d.}.$ d.f.N.f.{ m.{ l x ] f.p.&XS.) 8 ",
"[.wX{ t uXK.z B C.' r N.p.Q.5.>XJ A.u O.%.N.a.BXS w.Z.z.d z.e.z.}.f g d.A uXm.| N l ..h.e.-X$X,./ 7 ",
"8X4 ~.W.i L | [.-.J @.s.F.x.M.AX5 tXS f.O.z j.*Xq.1.s.p.#.j x.1.3Xt ^ R :.sXe.fX0 ( N k.jXx.Y...8 rX",
"S.l T.%.[.m.Z.uXZ R o.7.#.m BXe M.n b.L.z.J bX1Xz A. Xx.t.P X.d.%X& @.z XXA h. Xq / '.1.f._.oX@.= %.",
" XN.k J @XQ.&Xm.N q z.X.Y nXNXc F.8.8Xj.=X~ P.c z.p.>Xp.3.C S =XSXs ) ].z.v.SXnXf V g.%XC.}.#Xh , E.",
"+Xi.I E !.~.a ..s.,..XD j KX-.V.g.W.N.1X6.q.B ,.s.1Xh A.X.-Xa JXi (.h.C R C ;.oXf | X.-XD.[.z.0 k M.",
"7.x.M I $XD c n.v.2XaXH.X.B u.g.g.W. Xp.4.cX&.M.m.B.5 ^ B e.8Xt t.tX4.z T D.8.BXkX> A.c./.uXm.' i.=X",
"w.x.N [.u %.t.%.3XBXH.uXs.n.I.:XBX4.H.t.E.OXBX^.F.m.D.s.>XSXx.I._.n.'.i.V U zXoXxX8 z.s.}.*Xs w.E.1X",
"X.iX<.S.*XJ 1./.VX6.`.lXS C.>X+XVX-Xc A.k.3XBXeX#X;XcX>XnXJX;.uXs.l M.f.N.#.d HX& qXz.p.]..X& p.%.tX",
"W.L.2.*Xt.! 3.h.Q.,.-Xw.'.jXvXmXJXl 6 ,XmXBXq.z ].3XBXKX} t a.G.uXi.P D.wX< l FXg #.i.`.k.@XjX8.z.-X",
"D DX| oXV W 6.%.%XzXF.oX>XZX+XHX/ . d {.KXc . o P h L k     l 7 P n.M i.e hXV.j f.8.`.2Xk oX9XN.K..X",
"O.cX#.:.U ' { -XDXm 8X3XOXGXe.A o . g kX{ #   + O     X     O . .   Y v u.^.wXl M.t.Y.BXv  XC.g.<.-X",
"' BXb =.F [ N.OXfXyXJ.vXF.n (   o   . X.o X o           X       @     # 8 e.(.A.B y.fXVX5  X).9Xj.!.",
"m.c m Q ( C.>.,X6.p.BXgX/ xX#.X o O   o @ 1 @     @ X   X o   X     o O 7 ..h.i.B.j P.SXw j.O.M.f.i.",
"=XC.w.L W k.:Xu.^.9.NXq.a.w.. X     o o   o . o     X         O   X . o # L z.l.M.6XGX$ M.Z.x.B.f.N.",
"8.#.r _ Y 5.;Xd.U.VXGX*.BXl @ 1 #   o X   .                       .   O o P w.#X}.8Xn qXa.i.3.8X3.%X",
" X@.z } [ g v.Q.,XBXB C.NXV   o     o   o   o                       X   o s m.#XV.%Xi.E.V.H l.s.3.nX",
".XN.{ p v E g.1XFXq.D.<Xq.    . o o .   X o                   X         o k f.j.g.>X[.F.U.> 3.{.[.p.",
">.Z.wXv ).e 7X,XA f.1XSX' X   2 o   @                               X     * s C...-XMXV.%.4 7.!._.=X",
",.!.ZX! i.e.% 2.b.+XNXy.O     o @ X 6                               o       . f J.dX,Xg.h.L g.N./.x.",
"h.L.0.p.iXA.m.a.9XvXNXT 1   . X 6 q   8 6 q 8                                 M ;XdXf ^.+XM.5 N.6 g.",
"D <X,.i.;XZ.4XZ.CX3X2.O     X q 6 6 q 8 8 6 w 6 3 6 6 % X               o   . 8 CXb q .. XA.G B.v %.",
"4.9.{ D p.*Xt Z.fX} O .   X 6 &   6 q ;   q 8 M P k q q 6 + @         o       X j 2 < W.s x.6.h f.{.",
">XZX! :.L.v 7Xg [ o X   F w > g 8     0 ^ 3 0 ^ k 7 7 7 k 0 6 O           o     1 w t >.L *Xk.M.x.fX",
"cX~ q.6.cX5 ). .O   > 6 9 L h h F P P P 3  .7 f s 7 h k k L 0 0 6 +   X o   o   o , - h...aXV.s.=X@X",
"N { ..aXq nX*.o   f q ! < 7 F F L ) 0 I 3 h [ ) ' [ ..[ ) I P U q 7 9 q 2   .   X . qX- m.L.qXs.pXiX",
"h.J OX; V.hX[ s 7 0 0 7 L ^ 7 L ' x l l P ' j ' [ ] P V s r.' T ..& ; , 7 3 k     M f.: x.L.u.uX-Xj.",
"s.P ;X9Xh.4.O.5 k k  .@.} h 0 ) l [ ' ' x [ l l j h P } $.P l j V o.I +.Y h 7 > f : f.1.5.,X#XoXXX~.",
"a.(.0 N.9XnX<.I k 7 k P 4 ' $.4 ) [ o./ ..[ [ ' { ..' g.g N.V N.T r...l [ $.H w i : w.z.1.:X%X3X`.a.",
"v.hXU.O.kXSXn ) ....' d.r.[ | | o.d.' N.V M.V n.} ..[ V.n.(.g.l | s l V j s 0 L P G 6 d z N.d.@XrXg ",
"C.BX$ j.; N ~.e.N.A.N.{.A.h._.f.M.V A.x {.C f.' wXV V.f.A.N.N./.W P y 1X~.x.wX@.[ &.[ [ l n.N d e d.",
"%.u {.~.8XdXl.`._.s.h.`._.S.|._.{.A.S.`.S.iX}._.x.p.s.$X_.s.Q.`.h.N.wXwXA.*X].~.S.i.z.=Xx.C [ S.`.`.",
"f.F.XXf.iXF.4XqXi.sX-Xx.$X$Xv.!.`.!.`.!.c.{.|.{.{.{.&XZ.iXdXS.A.`.{.x.].iXp.=Xx.j.-XL.!.!.-X!.c.A.x.",
"uX{.@X}.j.!.8.V.iX<.e.`.c.@X`.`.`.`.@X-Xx.Q.s.h.l.hX-Xl.K..Xl.=X#Xl.=X!.s.`.S.N.S.hX*X].E.%X!.].`.=X",
"h.N.~.`.&X#X XF.4.@XhXe.7.-XgXh.A.c.S.z.-X@X`.x.h.L.K.S.d.&X].E.A.x.&XS.x.iX`.S.s.@X].S.p.*X*Xc.x.S.",
"`.].!.A.Z.-X~.r.Y _.~.HXz.Z.`.Q.x.&XS.!.x.-X].{.Q.c.=X`.}.f._./.}._.A.`.S.uX{.A.].x.aX_.&Xs.`.Q.`.{.",
"l.=X!.dXm.A.].} ] g /.i.s.h.A.{.x.=XuX`.x.{._.`.}.`.`.h._._.`._.h._.h._.A.f.{.].p.x.K.X.1._.&X'.S.uX",
"@X!.&X`.x.`.N.(.~.V W I g.~.].F.`.A.=X`.].A.x.S.s._.-X'.x.x.`.Q./._.f._._.x.{.{.tX$XA.=Xg.-Xh.E.s.`.",
"Q.[.V z p.k.x.=X!.{.[ C.eX`.k.@X`.x.A._.A.{.A.$X].x.#XE.=X_.#Xx.A.A.A.{.A.`.S.S.^.f.N.A.}.&X`.].].`.",
"|.d.s pXAXHXS.k.F.e.$XQ.s.{.@X.X@X&X`.h.A.S.&Xc._.S.&Xs.h.x.-X=Xx.x.{.{.x.S.A.S.g._.=XO.A.S.K.`.&X&X",
"E.w.p pXAX2XK.!.A.&Xk.1X!.{.h.{.@X$X{.N.[.s.&X!.h.S.S.S.E.=X`.x.=Xx.`._.{.{._.A.s.Q.-X_.&Xz.z.].`.$X",
"1X_.b.y HXl.pX!.A.`.`.i.pXf.{.|.!.&Xw.A.h.S.$XgXeXS.{.{.).z.Q.Q.*Xf.`._.|.f.].{.Q.K.-Xf._.S.|.[.S.*X",
"i.p.{.x.[.Q.@X@X].`.S.g.&X{._.z.A.X.[.`.A.`.2X#X%X@Xp.x._._.h.`.`.|.p.}.`._._.E._.`.S.z.`.[.A.h./.i.",
"N.`.A.c.m._.`.%Xp.Q.*Xg.S.d./.{.}.g.{.`.E.x.oXJ.-X-Xx.A.{._.A.].`.=Xf.{.`.S._.h.A.].S.f.A.g.N.{._.a."
};
