/* XPM */
static char *_1b8687e7781405a833f22f75c5f5c00RbT63s2ulslguIR0[] = {
/* columns rows colors chars-per-pixel */
"50 50 139 2 ",
"   c #2F1F10",
".  c #34230E",
"X  c #3A240F",
"o  c #2D2010",
"O  c #352415",
"+  c #392615",
"@  c #372815",
"#  c #3C2916",
"$  c #362619",
"%  c #392719",
"&  c #362919",
"*  c #3C2B1B",
"=  c #3E301D",
"-  c #3E2E21",
";  c #3E3122",
":  c #412714",
">  c #412B16",
",  c #422E1D",
"<  c #482D18",
"1  c #44311E",
"2  c #4A331E",
"3  c #412F20",
"4  c #443323",
"5  c #493523",
"6  c #473825",
"7  c #4C3925",
"8  c #463628",
"9  c #4A3628",
"0  c #473A29",
"q  c #4C3929",
"w  c #503722",
"e  c #533B25",
"r  c #593E26",
"t  c #523D2A",
"y  c #583F29",
"u  c #553D31",
"i  c #544027",
"p  c #5C4125",
"a  c #55432E",
"s  c #55452E",
"d  c #54412C",
"f  c #58442C",
"g  c #5A462E",
"h  c #5B442D",
"j  c #5E492E",
"k  c #544132",
"l  c #564430",
"z  c #564531",
"x  c #574331",
"c  c #5C4732",
"v  c #584235",
"b  c #5B4531",
"n  c #5B4933",
"m  c #5E4830",
"M  c #5E4833",
"N  c #5A4834",
"B  c #5C4A36",
"V  c #5B4C35",
"C  c #5F4D37",
"Z  c #5E4933",
"A  c #5A4738",
"S  c #604226",
"D  c #61462D",
"F  c #654A2E",
"G  c #624631",
"H  c #624935",
"J  c #604B36",
"K  c #634D36",
"L  c #664E34",
"P  c #644C34",
"I  c #6C4E32",
"U  c #6B4F37",
"Y  c #694E34",
"T  c #654F38",
"R  c #644E39",
"E  c #6B4F3A",
"W  c #694F39",
"Q  c #6B5136",
"!  c #665038",
"~  c #65503B",
"^  c #67513A",
"/  c #63513D",
"(  c #66513E",
")  c #66513C",
"_  c #6B503B",
"`  c #6B523C",
"'  c #6C533B",
"]  c #705537",
"[  c #71563C",
"{  c #745A3E",
"}  c #665140",
"|  c #6F5642",
" . c #6D5541",
".. c #6F5942",
"X. c #705741",
"o. c #735B43",
"O. c #7B5D41",
"+. c #785E43",
"@. c #755F4A",
"#. c #7D6346",
"$. c #766049",
"%. c #7F674F",
"&. c #7C634B",
"*. c #7E6350",
"=. c #7D6750",
"-. c #7E6850",
";. c #806547",
":. c #80664D",
">. c #85684A",
",. c #81694F",
"<. c #83694F",
"1. c #816751",
"2. c #826851",
"3. c #836952",
"4. c #866B50",
"5. c #836A54",
"6. c #856D55",
"7. c #846B53",
"8. c #886C56",
"9. c #896F54",
"0. c #876E5A",
"q. c #896E58",
"w. c #8F7457",
"e. c #8B7156",
"r. c #8E745B",
"t. c #8D735B",
"y. c #92775A",
"u. c #91775E",
"i. c #93775F",
"p. c #91775C",
"a. c #957A5F",
"s. c #92785D",
"d. c #987B5D",
"f. c #947A61",
"g. c #957A62",
"h. c #997E61",
"j. c #997F66",
"k. c #9B8063",
"l. c #9A8065",
/* pixels */
"d s z d 4 * & * O & 4 3 * 5 5 5 2 1 1 = 8 8 - - - - 4 k B / ( ^ R W f i n n a = = 1 1 1 4 1 2 Z 3.i.",
"i i d q 4 = = = & O * 5 6 4 5 6 # 1 1 2 4 4 4 0 * * = 4 4 5 q t f x e q s z d = = = = 6 4 4 6 Z 3.r.",
"k k d 6 ; = * = $ O * 3 1 4 > : 2 j K d , 3 4 4 4 ; 3 * * @ & > < 5 5 u d d d * = 4 6 1 4 4 8 q J ^ ",
"d 0 6 ; * * & & o O 4 1 1 5 5 2 L -.6.^ > 4 5 3 8 8 4 4 , * * & % $ < 9 q d k * * 1 6 ; 4 4 * - N K ",
"3 - - & * * & & & o * 5 4 : 5 E <.k.l.-.1 2 6 4 4 4 8 0 4 4 - * % O % 3 4 u u 5 > 3 3 3 4 3 - $ 6 d ",
"* & - - = * & & & O * 4 3 w H 1.w.d.k.s.w > 4 5 8 4 4 4 8 8 8 4 3 3 O % : 5 u q 3 , 3 3 8 8 - - & * ",
"3 - ; - & & & &   * 9 , e X.:.8.#.>.y.f.w 1 5 6 4 4 4 4 4 8 4 4 9 3 3 % % % 9 q 4 , * 3 9 8 3 - O O ",
"% % & & $ & o $ $ , 3 3 y E E U I ;.d.r.1 < 2 = 4 8 8 8 4 3 3 4 3 9 9 3 % % 3 8 u 3 % 3 4 4 - - * @ ",
"$   $ % O o - & ; ; 4 6 b ' _ [ F P { X.1 > 5 5 4 1 = 1 4 2 5 5 4 3 < 4 4 % O 4 4 4 $ O 4 4 3 0 1 4 ",
"O O $ % & * ; ; 0 ; 4 d L ` E [ ' ` '  .5 4 4 4 4 4 5 2 1 1 < 2 , 5 9 5 < % O O & $ O O - 4 4 5 4 5 ",
"$ $ % - ; ; 6 4 4 # 1 s ' ' Y [ ' P b c 7 9 4 ; 1 = * 1 2 w e w w w < 4 4 , : * & & & & ; 4 4 3 6 2 ",
"3 3 4 3 ; 8 4 ; # @ # f ` ` G L r w 2 5 9 4 ; 4 4 1 2 g o.q.g.j.:.P 5 > 5 3 4 3 * & * 4 4 0 8 , 2 2 ",
"8 8 4 4 4 4 * & @ @ 1 e L L j h 2 > > 3 5 4 4 8 5 6 i P X.o.O.8.i.y.o.e > 2 6 * 4 4 4 4 1 1 4 > # 2 ",
"4 8 3 4 4 * + + @ 1 5 f K ` P n 5 > , , 8 3 4 4 1 = 5 P X.' I { 4.y.f.+.e 1 5 5 0 5 4 4 4 , , e ..$.",
"4 4 , 4 4 & O * 1 7 f Z ^ ' ' ' e , 3 * 8 - 6 ; = # 1 j ' ' Y Y { #.u.f.` > # 9 , , 4 4 7 4 t  .0.0.",
"4 4 4 4 4 $ O * 7 a g L ' ' Q [ y % % * 4 * 0 4 & = 7 f h h S D p Q <.t.+.a 9 5 4 9 4 4 5 # 5 ' &.o.",
"4 0 4 4 4 @ O 5 i g L Q Q [ { Q t * . + * 4 4 * * 3 e a G D P I I h P ' b 4 4 8 4 8 3 3 1 > 2 e b P ",
"1 6 4 4 5 # @ 7 i g ! Q Q Q ' ! 7 * O + , 9 9 * : 5 u J W ' [ Q [ G w < & * - 8 3 8 4 4 > > 1 7 h G ",
"@ 4 4 4 4 & + 5 e j Q ' Q ` ' G 4 * O O - 3 9 3 $ 3 u H R [ ' I { _ f # + 4 8 8 4 4 4 , > 1 4 e H E ",
"O 1 1 4 4 * + 4 f Z ' ' ' ` P f 1 * O & 3 3 4 3 * 9 u R  .' [ Q P X.L 1 > 3 4 - 8 4 , * * > 7 b E X.",
"O 4 4 4 9 * # < d g K ! ` K y 5 = * % O * 4 9 3 - , q L X.' Y ' L X.^ 5 % % - 8 8 4 - $ % , 6 k R X.",
"@ 4 4 4 3 * % % 7 e y s N y 5 , * = O O * 4 3 9 * O < B X.` Y I ' ' R 7 , % - 8 8 8 * $ * * , 4 c } ",
"O - 4 4 3 , # O 1 4 4 5 5 1 * - ; * O O , 3 4 5 3 # : a ' ' [ [ ' ` J t * % - - 8 8 $ O * - * * t c ",
"$ * 4 3 9 4 , + @ * , 1 , * & 4 - ; & O * 4 9 3 5 : X 2 j Q Q ' X.} R t & % 4 8 8 ; $ O % - - & % 7 ",
"$ - 8 3 3 9 * : & O & 3 * - 4 * * & * * 1 1 4 2 5 1 : X > j L g ^ ^ a 4 * % 4 8 8 3 % O O & * = * * ",
"% - 3 3 3 9 4 8 1 O + * * * * - * & + & * 4 6 5 5 1 1 O . 1 i h b B q , O O 4 8 8 3 * % O & & & * * ",
"% - 3 3 4 7 9 9 * 4 * & * - - 4 % * - 4 6 7 6 = * 4 4 1 @ # 7 z a t 4 * O $ 3 8 5 4 * & O O O O - ; ",
"- - 8 9 5 5 < , , 8 5 & O * * * 8 4 4 1 , > 2 2 > 4 6 6 # O * 6 q 5 * & % * 4 4 9 8 4 * O O O & * = ",
"% 3 8 9 < 2 u G 5 5 4 1 1 = 4 2 , 1 2 2 2 2 1 1 1 1 4 4 1 * * 4 4 & O O * 9 5 3 5 5 3 < * @ O O O O ",
"% 4 5 < : w O.q.' 5 1 6 5 1 , 4 7 5 2 2 2 2 2 > q 6 2 4 6 = O O $ O O O 3 9 3 3 , , 3 9 , * + O o O ",
"3 4 3 : < H i.j.-.f 1 5 , # 4 2 > h $.p.a.e.&.' w 2 : 1 6 4 1 4 * O * * 3 8 4 8 5 5 5 2 4 , * @ O O ",
"3 4 % < w o.g.i.X.e 2 5 < f o.o.9.t.p.e.#.#.#.9.9.#.g 2 1 * 1 4 3 - 4 4 , 9 , 7 e e 5 < 2 1 4 4 + % ",
"8 4 - % C &.t.@.v 4 2 1 e o.-.5.<.+.[ [ Q Q ' { <.t.5.c 4 4 5 3 3 8 5 3 1 2 K &.f.f.7.=.g 1 2 = 3 * ",
"8 - * % C $.=.R 1 > 6 4 7  .@._ Y P F F F I F Y Y <.t.@.y 5 5 3 5 9 7 , 2 Z %.k.s.#.w.w.7.[ 7 # 3 5 ",
"- %   # b ' ^ 2 * 1 6 # , J ` j S P Y I Y Q Q Y G P  .R e 3 9 , , 4 , 7 ' -.<.;.Y p ] #.e.e.L 2 , t ",
"8 ,   # z ! g 1 1 5 6 O O 7 b r y P E Y F Y F I E 5 < 3 , 3 5 , 0 4 * e o.<.#.F Y ] F ] =.e.a.o.1 : ",
"4 $   # y b 2 # 1 6 5 * # 5 y y J [ o.[ ' [ [ E ' < : < , 3 9 3 4 4 7 b X.+.[ Q I [ P S j ] e.%.R 2 ",
"* O   4 a a # @ 1 4 4 * % 1 k k j Y ' Y Y Y E W X.e : 3 , 3 5 9 * 4 t W X.` F Q I U { I p Y [ <.&.j ",
"- % % k R ( 1 , 4 6 * & & 1 q b G R ' _ ' '  .X.E e : : < 3 9 3 0 8 3 5 j Y Q [ ] I [ F p p p { <.<.",
"- + + t ( } 1 1 * 0 3 * & * 0 6 x b R R R ` ` ` b q , % - 3 3 4 3 3 , 3 Z ' ' Y E O.G h f p L L F :.",
", % X q  .} 9 3 * 4 4 3 % $ , 3 7 t u x b J H A 9 3 % * * 4 6 4 3 3 * 1 g Q ` Q E E E D r r D W Q o.",
"3 : + 5 } } u 4 , 4 8 3 * $ % , 3 9 9 q 9 t t 9 4 , % & = 4 4 ; 3 , # 1 f ` ` Q [ E P G r r P ' ' X.",
"3 < # , u A 9 3 - 4 4 4 - % % % * , 3 , 3 4 3 , * % $ * - 4 ; 6 4 - + 1 f ` ' ` [ E H D p e j ' K B ",
"5 3 % % 8 u 3 - * 3 4 8 3 * % % % % * & * * * # % * * * ; 4 4 6 8 * @ > g L ' ' X.P G h e 7 i K y 7 ",
", , % + * 3 - % $ % 3 8 4 3 3 - % & * & * * * * * - 3 4 ; 4 4 ; 4 * @ 1 a L ` ' ^ F s i 7 1 1 i 4 > ",
"3 5 , + O $ $   % - 3 4 8 3 4 3 3 4 , 4 ; 4 4 4 3 4 4 4 4 6 1 6 4 * @ # t j J ` L s i i 1 # # 1 6 4 ",
"4 4 3 * $ $ $ $ - 3 4 4 4 8 8 4 6 4 4 4 4 4 4 6 ; 4 ; 4 6 4 4 1 4 * @ @ 4 5 t g z s 7 2 = @ # = 4 4 ",
", 4 8 8 3 3 8 q 4 3 4 4 4 4 8 4 4 4 4 1 4 1 , 1 1 4 * 4 6 1 1 1 7 > @ @ * * , 7 a i 2 1 = * = = = 4 ",
"4 4 - 4 4 ; 3 * 5 5 5 4 3 5 3 1 5 2 5 1 2 4 2 1 7 5 5 1 2 1 1 = 1 ; * O @ * > 1 4 1 1 , * & O 4 4 4 ",
"8 8 8 4 8 4 4 4 1 1 < 5 5 < 4 < 1 2 5 1 , 2 2 1 1 1 1 1 1 2 4 2 6 4 * & % * * * 1 , 3 , , & O 8 4 0 "
};
