/* XPM */
static char *_3b8104f56f045e8c0523ab93cfcfd50NZ9RyM3VamFyduzx[] = {
/* columns rows colors chars-per-pixel */
"50 50 155 2 ",
"   c None",
".  c #010101",
"X  c #050B05",
"o  c #0A0C00",
"O  c #0B0D0B",
"+  c #071007",
"@  c #071008",
"#  c #0A140A",
"$  c #0C1C0D",
"%  c #100E10",
"&  c #161516",
"*  c #111811",
"=  c #1E1E1E",
"-  c #0E210F",
";  c #192201",
":  c #1F2901",
">  c #11210D",
",  c #1B2E0C",
"<  c #0F2210",
"1  c #112611",
"2  c #132B14",
"3  c #153116",
"4  c #173518",
"5  c #183719",
"6  c #1B3E1C",
"7  c #222D01",
"8  c #213107",
"9  c #293701",
"0  c #2C3A01",
"q  c #232323",
"w  c #2D2D2D",
"e  c #333333",
"r  c #3B3C3B",
"t  c #1D421E",
"y  c #344400",
"u  c #3A4A00",
"i  c #1F4620",
"p  c #1F4820",
"a  c #224C23",
"s  c #255426",
"d  c #265728",
"f  c #2E572F",
"g  c #275929",
"h  c #295C2A",
"j  c #304031",
"k  c #374837",
"l  c #3C5E3E",
"z  c #2D652E",
"x  c #3D7A2E",
"c  c #2D6730",
"v  c #2F6930",
"b  c #316E33",
"n  c #3A6C3C",
"m  c #337335",
"M  c #357937",
"N  c #3B7D34",
"B  c #367A38",
"V  c #387E3A",
"C  c #536C01",
"Z  c #557103",
"A  c #424442",
"S  c #4B4B4B",
"D  c #405340",
"F  c #565A56",
"G  c #585758",
"H  c #5B5A5B",
"J  c #526453",
"K  c #646464",
"L  c #6C6A6C",
"P  c #6A746B",
"I  c #787878",
"U  c #3E8034",
"Y  c #38823B",
"T  c #3B883E",
"R  c #5F971E",
"E  c #658100",
"W  c #6E960A",
"Q  c #749A03",
"!  c #629A1D",
"~  c #79A005",
"^  c #7FA904",
"/  c #75A50E",
"(  c #7CAC0C",
")  c #6DA115",
"_  c #71AE1E",
"`  c #77B31B",
"'  c #7DB515",
"]  c #4C8A2B",
"[  c #518D27",
"{  c #5C9621",
"}  c #53962D",
"|  c #418332",
" . c #458832",
".. c #488930",
"X. c #6AA923",
"o. c #72B020",
"O. c #3D8D40",
"+. c #3E9041",
"@. c #459F48",
"#. c #439A46",
"$. c #47A44B",
"%. c #48A74C",
"&. c #4AAB4E",
"*. c #4CAF50",
"=. c #4DB151",
"-. c #778277",
";. c #82AB03",
":. c #86B104",
">. c #89B504",
",. c #8DBA04",
"<. c #97CA08",
"1. c #93C203",
"2. c #93D014",
"3. c #9DDA12",
"4. c #A3D202",
"5. c #A6D801",
"6. c #ABDD02",
"7. c #A4DC0A",
"8. c #AEE102",
"9. c #A7E00C",
"0. c #ACE508",
"q. c #B1E401",
"w. c #B5EA01",
"e. c #B8ED00",
"r. c #BCF301",
"t. c #C2F900",
"y. c #868886",
"u. c #8D8D8D",
"i. c #949494",
"p. c gray62",
"a. c #9A9A9A",
"s. c #A6A6A6",
"d. c #A5A5A5",
"f. c #A8A7A8",
"g. c #AFAEAF",
"h. c #B2B2B2",
"j. c #B6B6B6",
"k. c #C6C6C6",
"l. c #C8C8C8",
"z. c #CECECE",
"x. c #DBDBDB",
"c. c #DDDDDD",
"v. c LightGray",
"b. c gray89",
"n. c #E5E5E5",
"m. c #EEEEEE",
"M. c #E9E9E9",
"N. c #F3F3F3",
"B. c #F1F1F1",
"V. c #F6F6F6",
"C. c #FBFBFB",
"Z. c #F9F9F9",
"A. c white",
"S. c #FEFEFE",
"D. c #FDFDFD",
/* pixels */
"                                                                                                    ",
"                                                                                                    ",
"                                                                                                    ",
"                                                                                                    ",
"                                                                                                    ",
"                                        X . . X O . . X X . . X O                                   ",
"                                  . . . 6 p . K a.& 3 B V a O I i.X . .                             ",
"                                  $ - - p f A g.M.H l T *.m * j.v.S A r                             ",
"                                X g m b 2 r c.C.S.V.y.$ O.m # g.C.B.B.l.q                           ",
"                                . h z 5 P h.C.S.S.S.u.+ O.#.b J u.Z.S.m.d.H .                       ",
"                                X h d O s.S.S.S.S.S.u.O b @.&.2 e k.m.S.S.i.w                       ",
"                                . h d O s.S.S.S.S.S.u.. X p &.5 X = s.S.S.N.z.w .                   ",
"                              - t b d O s.S.S.S.m.i.A . . 6 $.4 . . S i.B.S.n.w .                   ",
"                            . 3 B B d O s.S.S.S.x.q . . . 6 $.4 . . . w n.S.b.w .                   ",
"                            . 3 B B d X s.S.S.S.x.q . . . 6 $.4 . . . w b.S.b.w .                   ",
"                            . 2 B B d O f.S.S.S.x.q . . . 6 $.c 3 . . w n.S.b.w .                   ",
"                            . 3 B B d # p.V.S.S.c.e X . . 6 &.*.V X O r n.S.n.w .                   ",
"                            . 3 B B b h k L N.S.V.l.K . . 6 &.=.V X L v.C.S.n.w .                   ",
"                            . 2 B B B B t j s.c.S.S.h.S O 6 &.=.#.5 -.j.h.j.p.q .                   ",
"                            . 3 m B B B m z * u.Z.Z.N.x.e 6 &.=.*.&.a # O O O . .                   ",
"                            . 3 B B B B B m s D G G G F n T *.*.*.&.B a s a p X .                   ",
"                            . 2 z m B B z z B t # # # - O.&.$.$.$.$.T B B m g #                     ",
"                                X h B B 3 - m m m m b m B V V V Y V B B B t X                       ",
"                                X h B B d 6 4 4 4 4 5 5 5 5 5 5 4 5 5 5 5 <                         ",
"                                . d b B B z # + + + + + @ X . . . . . . .                           ",
"                                  X 3 B B B v v v v v v v p .                                       ",
"                                    $ t v B B B B B B M s 2 .                                       ",
"                                      . s B B B B B U x , o .                                       ",
"                            . . . . . . s B B B B B X.9.4.E .                                       ",
"                            1 2 2 2 - . 4 h m B N ] ' q.w.;.y ;                                     ",
"                        . # z B m B d X . $ b B | ( >.,.,.,.;.9 .                                   ",
"                      . 3 h m B B B b d $ $ b B ..7.w.w.q.w.6.y .                                   ",
"                      $ a B B B B B B B 2 # b B  .2.0.w.w.w.q.y .                                   ",
"          . . . . . # v B B B B B B B m 2 $ m B B U ! ,.,.,.:.0 .                                   ",
"        - p a a a # # v B B B B B B B B h d m B M M X.8.8.8.5.y .                                   ",
"      . 2 B B B B 6 1 m B B B m z m B B B B B U | B _ r.r.r.w.u .                                   ",
"      . 2 m B B B m m m B B B a # h N B B B B R / U R ,.,.,.:.0 .                                   ",
"        $ t v B B B B B B B m z 6 6 s m B B B ] R R R ! <.6.4.y .                                   ",
"          . s m m B B B B B  .N v $ - v m B B B | / ! ..7.t.e.u .                                   ",
"            # 2 m B B B M  .3.W $     # h B B B B | { ( ,.1.,.0 .                                   ",
"              $ a p s m } _ ~ C .     . 5 d m B N [ ) >.>.Q C 7                                     ",
"                . . # v ` 5.7 .         . $ v m x / ^ ^ ;.C X                                       ",
"                      $ 8 0 o .             $ - > : 7 7 7 :                                         ",
"                      . . . .               . . . . . . .                                           ",
"                                                                                                    ",
"                                                                                                    ",
"                                                                                                    ",
"                                                                                                    ",
"                                                                                                    ",
"                                                                                                    "
};
