/* XPM */
static char *_a42054f8f0a43859ad73a0aaa21de906ituOnjwQNYwREGn[] = {
/* columns rows colors chars-per-pixel */
"50 50 128 2 ",
"   c #4A672E",
".  c #4B6A2F",
"X  c #4E722F",
"o  c #50762F",
"O  c #517B2F",
"+  c #4D6D30",
"@  c #4F7131",
"#  c #527432",
"$  c #557B33",
"%  c #587E34",
"&  c #55842F",
"*  c #578A2F",
"=  c #588E2F",
"-  c #5A932F",
";  c #5D9B2F",
":  c #568331",
">  c #5B8336",
",  c #578930",
"<  c #5C8B33",
"1  c #5F8A38",
"2  c #5C9231",
"3  c #5E9B30",
"4  c #608C37",
"5  c #618D39",
"6  c #629336",
"7  c #629D34",
"8  c #65933A",
"9  c #68973B",
"0  c #669939",
"q  c #6B9D3C",
"w  c #5FA12F",
"e  c #5FA130",
"r  c #61A52F",
"t  c #63AB2F",
"y  c #66B42F",
"u  c #69BC2F",
"i  c #63A432",
"p  c #68A137",
"a  c #64AC30",
"s  c #69AC35",
"d  c #6DA33C",
"f  c #6DAA3A",
"g  c #71A63F",
"h  c #72AB3E",
"j  c #66B430",
"k  c #6BB534",
"l  c #67B830",
"z  c #6ABC31",
"x  c #6FB438",
"c  c #71BF36",
"v  c #73B33C",
"b  c #73BC39",
"n  c #79BD3E",
"m  c #6BC02F",
"M  c #6DC132",
"N  c #72C436",
"B  c #75C937",
"V  c #75C339",
"C  c #7CC53E",
"Z  c #77C839",
"A  c #77CA38",
"S  c #7CC83E",
"D  c #7DCE3D",
"F  c #7FD13E",
"G  c #72A740",
"H  c #73A840",
"J  c #74AA40",
"K  c #75AB41",
"L  c #75AE40",
"P  c #76AE41",
"I  c #77B042",
"U  c #78B341",
"Y  c #78B042",
"T  c #7AB442",
"R  c #7AB742",
"E  c #7BB643",
"W  c #7BB842",
"Q  c #7DBA43",
"!  c #7DBB43",
"~  c #7DB844",
"^  c #7CB944",
"/  c #7EB945",
"(  c #7DC141",
")  c #7EC441",
"_  c #80CE3F",
"`  c #80D23E",
"'  c #81D33F",
"]  c #80BE45",
"[  c #81BF45",
"{  c #81BE46",
"}  c #82C046",
"|  c #83C346",
" . c #84C247",
".. c #81C644",
"X. c #85C647",
"o. c #83CD43",
"O. c #85C846",
"+. c #86CE46",
"@. c #87C748",
"#. c #87C948",
"$. c #87CB48",
"%. c #89CC49",
"&. c #84D142",
"*. c #84D242",
"=. c #87D544",
"-. c #89D546",
";. c #8AD746",
":. c #8BD846",
">. c #8BD946",
",. c #8BDA47",
"<. c #8CDB47",
"1. c #8DDD47",
"2. c #8BD04A",
"3. c #8CD04B",
"4. c #8CD24A",
"5. c #8CD44A",
"6. c #8ED74A",
"7. c #8FD54C",
"8. c #8DD949",
"9. c #8EDA49",
"0. c #90D74C",
"q. c #90D84B",
"w. c #92DB4D",
"e. c #92DC4C",
"r. c #94DE4D",
"t. c #95E04E",
"y. c #97E14F",
"u. c #9AE650",
/* pixels */
"  = u z u z O . .   o y m m u w . . . . . . . . X y ; X t u u c t .       .   .   +     . . . .   + ",
"= - ; l y ; - & . . X - k _ c t - = = = 2 , . . + = - = - r u r - < O X = O . * &   . @ = < - = X   ",
"j 3 $ a r $ a s o .     q ' _ b u y y u u t X @ # . < y % = y & : j & @ a - o a ;   X * z z M M = . ",
"O p O.N V $.<.o.y O . . # 6 _ _ u = 2 u u t X q } # + & Q v % T T : X + o - e * X X - j z M M :.p + ",
"  4 W i s ~ ] h r O . .   # h v 7 9 g u c t X 9 Y #   X h P 9 Y G +   # 5 v N $   + e M m B ) ~ 1   ",
"+ @ @ + . . @ @ + + . . . + . . #  .' b c a + . + + . . . 9 q.4 +     % 2.r.%.%   X a M M =. .$ + + ",
"r v W $   . - r t r r r r ; X . . % g ' '  .#   X 3 t w # # 4 # . + q ~ 9 5 1 + O a ) 1.:.f 4 +   + ",
"r x ] %   . ; t u u u a y y o . .   % _ _ ~ # # * y u u = #     + + d T #   + > p Z ..4.t.8         ",
"@ o @ . . . . & y u t O ; y O .   . . @ @ X . - u u u u u w . + .   @ @ +   # @.r.7.5 8 w.8   + + . ",
"  O - o   . . . * * = ; a u i & . . O w O X ; y z u r = y y w h g .         + 8 q 9 # # 9 $ @ 3 o + ",
"  = y * X     . o X o r y u y ; o . > z , o k y k c i > r k N _ W @ . . # O X O $ $ + +   # , z 2   ",
". - u y ; .   o t &   X ; y O * a O 4 q.8 O y - % 5.r.4.> q q.9 # . . X a j j j V 2.>     3 N e.h   ",
". = u m y 2 o o - p q + 9 _ ; w u O % d % % _ n g g g d # % g $   . & ; z z M D ( g $ X 2 - i S 2 + ",
". = u l l u * + . h _ # g ' _ c u > X . . % @.q.%.#   . X X .   . . ; z y z M ;.J     : z = : z <   ",
". = l & = u y 3 X # % . # 4 _ _ c _ Y .   . % % % . . + w - .     . ; y O ; u < #     4 9.V z 1.q   ",
". O 7 0 f u r ; * o . * # # H g ; P q + 4 8 . > 8 + o - b f . . X * r z d v V $ X * . > T ) ) Y 1   ",
". . #  .' c * % u * O x - . . . + . . # Y } o g _ $ * u ' Y +   & j u N :.w.%.: , y O   + Y ..# X @ ",
"  . + % g ' v k ;.9 % _ d   . .     O r ; % . $ % + o $ 4 % + 2 3 : w j < 1 > X @ O .     % > + * e ",
"O & O X 4 ] _ n ] 4 $ T 8 . O & % + O i O X O % % % o . . X % x x , 3 3 + X : . X O & & & X     e Z ",
"y u y $ . X ] _ # . . X . o t u u O . + . O y u u u ; . . & u ' =.z * +   2 t X * u z z l * .   L t.",
"* w y O . . > 4 . . X - w r u u u r r ; O   % r c u ; . . X , 6 2 : @     X & X 6 o.7 - u t - . > 6 ",
"4 0 c = X . . . . . o y N N t y u u c u * . . 7 B u - . X X . .     +   o X     5 } 9 6 u M a & + . ",
"q.r.w.c ; . . . . . o y _ 4.> * u u u z *     J ' _ ; X r ; . . + . . # e - .   + $ ] *.z M z y ,   ",
"d d q 6 % . * * . . X * 0 q r k ' i i D 2     > g _ p o n n 2 X $ H i a ) M ; @ . + 8 I *.i ; u ,   ",
"$ # . . . o a a O . .     . r n %.5 8 %.5   .   o _ d # ] o.s O > +.) B -.) e o + $   1 %.9 , l 2 + ",
"0.g . . & t u u y & . . . . X o % ] ] % X     . + # # . # # O . @ $ ^ &.> # @ . 8 $.> + % E ;.M =   ",
"h 5 + & w u r i o.4 X * = * + . . q 9 .   X * 2 & + .     o = = , . 1 G @       > H $     8 ^ ) 3   ",
". + % r j u : 4 %.9 o a u z O + . . . . . % z z s X   . . = u u e @ . . + + @ . + + @ + +   > $.q + ",
". 9 } 4 2 u y w 4 # . o v ' k = . . . . - k :.f O . . . ; y u u e @     . , e o   . 3 ; +   + > @   ",
"  5 v 6 = w b x +   @ 5 h n q * . . . . = p W 4 . & & * y k r c x @   @ = e l - @ @ x x , @       + ",
"@ + o r i O ]  .@   % 4.g . X . . .     . . . . o y u u u r o  .) @ . o a l l l 3 @ ) :.z , + + +   ",
"r , + t b ] q 4 +   + 4 % + - r r o   .     . . $ X.v & y b } q > .   X l e : j ; + > H -.+.H @     ",
"Z 7 o x S X.>       .     o t M u - O O & O     # ~ d : k ) ..>   X X X w - & j 3 .   > ! $.I @ @ & ",
"r.h o X.W # +     + . . + . y m z j j l u i # . + + 2 z :.T % + : j , . X 2 l z 3 . + + @ @ + + 2 l ",
"9 4 + 5 4 + . . . , - . . X t Z *.7 ; z u z T 4     # - N f . = s &.6 @ 2 a M &.f @ h x 3 # $ P M M ",
"o o o +   . . . O i k #   X w b $.8 < z y z 9.q . X X . ; ; . ; z &.8 X j l k 9.I @ T ) j $ % @.V a ",
"y y t O . .   O y &.+.$     . # % ] *.z * : z 2 X a -   X X . X @ % + @ j 3 $ ;.T + @ o @ + + @ @ X ",
"u Z ) % . .   # 2 q q @ $ 3 d 6 X 8 d 3 q h z = X j 3 .   X - @     : 3 l k G G 1 . . X = - - - o   ",
"y S 5.6 @   + . . X .   = z ;.H .     . I ;.N 2 X a - . @ 2 z :   + 3 M j C $.%   . X * z l l z =   ",
"o 7 V &.h +   O a y i X . $ % #       . # 8 ;.q . o X . ; N 9.1   + P +.: % % +   @ 3 j z = , l =   ",
". O 7 v q . O ; l t ; = O     X = * * * X $ P 1     @ 2 V ) I >   . 8 H @       $ q l k 3 0 0 3 & . ",
"X + . . + . i u u 2 $ j =     = l j l l & . X @ @ . = j ;.T @ . . . + @   @ @ @ 8 8.A e O E @.@ X o ",
"t *     O w & - l C ~ , X     * l = 2 j * X r n W $ X : > %   - ; + , e @ 9 ) s 3 1 j N } q > + , e ",
"Z 7 . O 7 Z 3 2 V ) I #     O - w * - z & X w v W @ X O . @ & y e @ , 3 @ 8 ) ) s , k ) ( 1   . , e ",
"t.H @ e V t.Z V e.q + . . X t e # i z z *   . . @ . - j O & z M e X . X   + # +.) z 8.( @ +     X X ",
"9 > X t j 9 ....8 $   .   X t b E < i &.6   . * 3 e j l i a u F ) @ * - +   + 1 1 , 6 1 + .     , e ",
"  @ , z f 4 T Y . . . O O : z &.;.q 9 ..1 . X w u t l N j j Z ..I @ - w , : > + + +         + o e Z ",
"+ , z ;.e.w.8 # . . X a u z :.=.N :.~ # + O a z j $ d 9.1 0 9.9 @   . & a ) $.$   +     + . O a ) e.",
"  X < q d d $ @ - O X j Z ) h 8 2 q 6 . . O y Z *.T d d h H q $ X H > @ , k ) e & .   @ ; f G - 0 G ",
". + +       + O j * O j =.9.,     .       $ u &.u.t.P # %.~ +   1 1.9 + + = m m 3 .   & z =.$.@     "
};
